<svg width="26" height="26" viewBox="-10 -10 532 532" fill="none" xmlns="http://www.w3.org/2000/svg">
<g fill="white">
<path d="M34.313,250.891c2.297-5.016,6.688-13.281,14.438-27.813c3.531-6.672,7.5-14.047,11.563-21.625H24.719 C11.063,201.453,0,212.516,0,226.188c0,13.641,11.063,24.703,24.719,24.703H34.313z"/>
<path d="M487.281,201.453h-35.594c4.078,7.578,8.031,14.953,11.563,21.625c7.75,14.531,12.125,22.797,14.438,27.813 h9.594c13.656,0,24.719-11.063,24.719-24.703C512,212.516,500.938,201.453,487.281,201.453z"/>
<path d="M39.391,465.188c0,18.406,14.938,33.328,33.328,33.328c18.406,0,33.313-14.922,33.313-33.328v-31.516H39.391V465.188z"/>
<path d="M405.938,465.188c0,18.406,14.938,33.328,33.344,33.328s33.328-14.922,33.328-33.328v-31.516h-66.672V465.188z"/>
<path d="M467.875,257.109c1.688,0.484-61.688-115.828-64.719-122.109c-8-16.672-27.781-26.703-47.063-26.703 c-22.281,0-84.344,0-84.344,0s-93.563,0-115.859,0c-19.297,0-39.031,10.031-47.047,26.703 c-3.031,6.281-66.391,122.594-64.719,122.109c0,0-20.5,20.438-22.063,22.063c-8.625,9.281-8,17.297-8,25.313c0,0,0,75.297,0,92.563 c0,17.281,3.063,26.734,23.438,26.734h437c20.375,0,23.469-9.453,23.469-26.734c0-17.266,0-92.563,0-92.563 c0-8.016,0.594-16.031-8.063-25.313C488.406,277.547,467.875,257.109,467.875,257.109z M96.563,221.422 c0,0,40.703-73.313,43.094-78.109c4.125-8.203,15.844-14.141,27.828-14.141h177.031c12,0,23.703,5.938,27.828,14.141 c2.406,4.797,43.109,78.109,43.109,78.109c3.75,6.75,0.438,19.313-10.672,19.313H107.219 C96.109,240.734,92.813,228.172,96.563,221.422z M91.125,384.469c-20.656,0-37.406-16.734-37.406-37.391 c0-20.672,16.75-37.406,37.406-37.406s37.391,16.734,37.391,37.406C128.516,367.734,111.781,384.469,91.125,384.469z M312.781,394.578c0,2.734-2.219,4.953-4.938,4.953H204.172c-2.734,0-4.953-2.219-4.953-4.953v-45.672 c0-2.703,2.219-4.906,4.953-4.906h103.672c2.719,0,4.938,2.203,4.938,4.906V394.578z M420.875,384.469 c-20.656,0-37.422-16.734-37.422-37.391c0-20.672,16.766-37.406,37.422-37.406s37.406,16.75,37.406,37.406 S441.531,384.469,420.875,384.469z"/>
</g>
</svg>